# xmcd
#
# Track frame offsets: 
#        150
#        10065
#        20983
#        28658
#        39655
#        46940
#        83558
#        99908
#        107610
#        113234
#
# Disc length: 1705 seconds
#
# Revision: 0
# Processed by: cddbd v1.5.2PL0 Copyright (c) Steve Scherf et al.
# Submitted via: ExactAudioCopy v0.99pb4
#
DISCID=7006a70a
DTITLE=Billie Holiday - Ultimate 20 - Disc 2
DYEAR=2008
DGENRE=R&B
TTITLE0=Crazy They Call Me
TTITLE1=What A Little Moonlight Can Do
TTITLE2=Everything Happens To Me
TTITLE3=I Got It Bad And That Ain't Good
TTITLE4=Moonlight In Vermont
TTITLE5=Fine And Mellow
TTITLE6=I Cover The Waterfront
TTITLE7=All Of Me
TTITLE8=You're Driving Me Crazy
TTITLE9=He's Funny That Way
EXTD=
EXTT0=
EXTT1=
EXTT2=
EXTT3=
EXTT4=
EXTT5=
EXTT6=
EXTT7=
EXTT8=
EXTT9=
PLAYORDER=
